<svg width="48" height="17" viewBox="0 0 48 17" fill="none" xmlns="http://www.w3.org/2000/svg">
<g clip-path="url(#clip0_16_65)">
<path d="M24.8101 5.47246C24.7831 7.61811 26.713 8.8154 28.1669 9.52733C29.6606 10.2577 30.1623 10.7261 30.1564 11.3793C30.1453 12.3789 28.9649 12.8202 27.8604 12.8373C25.9334 12.8673 24.8129 12.3145 23.9222 11.8964L23.228 15.1605C24.1217 15.5743 25.7765 15.9352 27.4925 15.9511C31.5207 15.9511 34.156 13.953 34.1703 10.855C34.1861 6.92333 28.7584 6.70571 28.7955 4.94834C28.8083 4.41547 29.3142 3.84682 30.423 3.70224C30.9719 3.6292 32.4869 3.5733 34.2046 4.36814L34.8788 1.21003C33.955 0.872045 32.7678 0.548408 31.2897 0.548408C27.4983 0.548408 24.8316 2.5737 24.8101 5.47246ZM41.3568 0.820434C40.6213 0.820434 40.0014 1.25158 39.7248 1.9132L33.9708 15.7191H37.996L38.797 13.4946H43.7157L44.1803 15.7191H47.7281L44.6322 0.820434H41.3568ZM41.9199 4.84512L43.0816 10.4397H39.9002L41.9199 4.84512ZM19.9298 0.82062L16.7569 15.7189H20.5926L23.764 0.820248H19.9298M14.2555 0.820248L10.2631 10.9611L8.64815 2.33875C8.45865 1.37622 7.71032 0.820434 6.87928 0.820434H0.353007L0.261597 1.25307C1.60141 1.54522 3.12368 2.01642 4.04594 2.5206C4.61034 2.82858 4.77129 3.09782 4.9567 3.82968L8.01551 15.7191H12.0689L18.2833 0.820434H14.2555" fill="url(#paint0_linear_16_65)"/>
</g>
<defs>
<linearGradient id="paint0_linear_16_65" x1="22.0838" y1="16.26" x2="22.5319" y2="0.44141" gradientUnits="userSpaceOnUse">
<stop stop-color="#222357"/>
<stop offset="1" stop-color="#254AA5"/>
</linearGradient>
<clipPath id="clip0_16_65">
<rect width="47.4665" height="15.4645" fill="white" transform="translate(0.261597 0.548401)"/>
</clipPath>
</defs>
</svg>
