<svg width="36" height="25" viewBox="0 0 36 25" fill="none" xmlns="http://www.w3.org/2000/svg">
<g clip-path="url(#clip0_16_60)">
<path d="M7.0497 24.4392V22.8136C7.0497 22.1903 6.62792 21.784 5.90497 21.784C5.54357 21.784 5.15198 21.8924 4.88085 22.2446C4.6701 21.9466 4.36893 21.784 3.91711 21.784C3.6158 21.784 3.31476 21.8652 3.07369 22.1633V21.8382H2.44116V24.4392H3.07369V23.0032C3.07369 22.5427 3.34481 22.3258 3.76659 22.3258C4.18809 22.3258 4.39912 22.5697 4.39912 23.0032V24.4392H5.03165V23.0032C5.03165 22.5427 5.33268 22.3258 5.72427 22.3258C6.14605 22.3258 6.3568 22.5697 6.3568 23.0032V24.4392H7.0497ZM16.417 21.8382H15.393V21.0525H14.7605V21.8382H14.1882V22.3529H14.7604V23.5451C14.7604 24.1413 15.0315 24.4934 15.7544 24.4934C16.0256 24.4934 16.3266 24.4122 16.5376 24.3038L16.3568 23.8161C16.1761 23.9244 15.9653 23.9516 15.8147 23.9516C15.5135 23.9516 15.393 23.789 15.393 23.518V22.3529H16.417V21.8382ZM21.7786 21.7839C21.4171 21.7839 21.1762 21.9466 21.0256 22.1633V21.8382H20.393V24.4392H21.0256V22.9762C21.0256 22.5427 21.2363 22.2988 21.6279 22.2988C21.7484 22.2988 21.899 22.326 22.0195 22.353L22.2002 21.8112C22.0797 21.784 21.899 21.784 21.7786 21.784V21.7839ZM13.6762 22.0549C13.3748 21.8652 12.9532 21.784 12.5014 21.784C11.7786 21.784 11.2967 22.1091 11.2967 22.6239C11.2967 23.0575 11.6581 23.3013 12.2906 23.3826L12.5918 23.4097C12.9232 23.4638 13.1039 23.5451 13.1039 23.6807C13.1039 23.8702 12.8629 24.0058 12.4411 24.0058C12.0195 24.0058 11.6881 23.8702 11.4773 23.7348L11.1761 24.1683C11.5074 24.385 11.9593 24.4934 12.411 24.4934C13.2544 24.4934 13.7364 24.1413 13.7364 23.6535C13.7364 23.1929 13.3448 22.949 12.7423 22.8678L12.4411 22.8406C12.17 22.8135 11.9593 22.7594 11.9593 22.5969C11.9593 22.4072 12.17 22.2988 12.5014 22.2988C12.8629 22.2988 13.2243 22.4342 13.405 22.5155L13.6762 22.0549ZM30.4834 21.784C30.1219 21.784 29.8809 21.9466 29.7303 22.1633V21.8382H29.0978V24.4392H29.7303V22.9762C29.7303 22.5427 29.9412 22.2988 30.3326 22.2988C30.4532 22.2988 30.6039 22.326 30.7244 22.353L30.9051 21.8112C30.7846 21.784 30.6039 21.784 30.4834 21.784ZM22.4111 23.1387C22.4111 23.9244 23.0134 24.4934 23.9473 24.4934C24.3689 24.4934 24.6701 24.4122 24.9712 24.1955L24.6701 23.7348C24.4291 23.8974 24.1882 23.9786 23.9171 23.9786C23.405 23.9786 23.0436 23.6535 23.0436 23.1387C23.0436 22.6511 23.405 22.3258 23.9171 22.2988C24.1882 22.2988 24.4291 22.38 24.6701 22.5427L24.9712 22.0821C24.6701 21.8652 24.3689 21.784 23.9473 21.784C23.0134 21.784 22.4111 22.353 22.4111 23.1387ZM28.2545 23.1387V21.8382H27.622V22.1633C27.4111 21.9195 27.1099 21.784 26.7183 21.784C25.9051 21.784 25.2726 22.353 25.2726 23.1387C25.2726 23.9244 25.9051 24.4934 26.7183 24.4934C27.1399 24.4934 27.4413 24.358 27.622 24.1141V24.4392H28.2545V23.1387ZM25.9351 23.1387C25.9351 22.6781 26.2665 22.2988 26.8086 22.2988C27.3207 22.2988 27.6822 22.6511 27.6822 23.1387C27.6822 23.5993 27.3207 23.9786 26.8086 23.9786C26.2665 23.9515 25.9351 23.5993 25.9351 23.1387ZM18.375 21.784C17.5316 21.784 16.9291 22.3258 16.9291 23.1387C16.9291 23.9516 17.5314 24.4934 18.405 24.4934C18.8267 24.4934 19.2484 24.385 19.5798 24.1413L19.2785 23.7348C19.0375 23.8974 18.7364 24.0058 18.4352 24.0058C18.0436 24.0058 17.652 23.8432 17.5616 23.3825H19.7003V23.1659C19.7304 22.3258 19.1882 21.784 18.3748 21.784H18.375ZM18.375 22.2717C18.7664 22.2717 19.0377 22.4885 19.0978 22.8949H17.5918C17.652 22.5427 17.9231 22.2717 18.375 22.2717ZM34.0677 23.1387V20.8086H33.4352V22.1633C33.2243 21.9195 32.9231 21.784 32.5315 21.784C31.7183 21.784 31.0858 22.353 31.0858 23.1387C31.0858 23.9244 31.7183 24.4934 32.5315 24.4934C32.9533 24.4934 33.2545 24.358 33.4352 24.1141V24.4392H34.0677V23.1387ZM31.7485 23.1387C31.7485 22.6781 32.0797 22.2988 32.622 22.2988C33.134 22.2988 33.4954 22.6511 33.4954 23.1387C33.4954 23.5993 33.134 23.9786 32.622 23.9786C32.0797 23.9515 31.7485 23.5993 31.7485 23.1387ZM10.6038 23.1387V21.8382H9.97127V22.1633C9.76038 21.9195 9.45921 21.784 9.06762 21.784C8.25438 21.784 7.62186 22.353 7.62186 23.1387C7.62186 23.9244 8.25438 24.4934 9.06762 24.4934C9.48939 24.4934 9.79056 24.358 9.97127 24.1141V24.4392H10.6038V23.1387ZM8.25438 23.1387C8.25438 22.6781 8.58574 22.2988 9.12785 22.2988C9.63991 22.2988 10.0015 22.6511 10.0015 23.1387C10.0015 23.5993 9.63991 23.9786 9.12785 23.9786C8.58574 23.9515 8.25438 23.5993 8.25438 23.1387Z" fill="white"/>
<path d="M13.4653 2.08624H22.9532V17.4217H13.4653V2.08624Z" fill="#FF5F00"/>
<path d="M14.0678 9.75404C14.0678 6.63821 15.6942 3.87451 18.1941 2.08623C16.3569 0.785714 14.0377 0 11.5076 0C5.5134 0 0.664062 4.36216 0.664062 9.75404C0.664062 15.1458 5.5134 19.5081 11.5075 19.5081C14.0376 19.5081 16.3568 18.7224 18.1941 17.4217C15.6942 15.6606 14.0678 12.8699 14.0678 9.75404Z" fill="#EB001B"/>
<path d="M35.7545 9.75404C35.7545 15.1458 30.9051 19.5081 24.9111 19.5081C22.3809 19.5081 20.0617 18.7224 18.2244 17.4217C20.7545 15.6336 22.3509 12.8699 22.3509 9.75404C22.3509 6.63821 20.7243 3.87451 18.2244 2.08623C20.0616 0.785714 22.3809 0 24.9111 0C30.9051 0 35.7546 4.38931 35.7546 9.75404H35.7545Z" fill="#F79E1B"/>
</g>
<defs>
<clipPath id="clip0_16_60">
<rect width="35.1252" height="24.5613" fill="white" transform="translate(0.664062)"/>
</clipPath>
</defs>
</svg>
