<svg width="21" height="23" viewBox="0 0 21 23" fill="none" xmlns="http://www.w3.org/2000/svg">
<g clip-path="url(#clip0_16_67)">
<path d="M17.3836 2.51871C16.2985 1.37056 14.337 0.878326 11.8276 0.878326H4.54479C4.29651 0.878335 4.05638 0.960562 3.86757 1.11022C3.67876 1.25989 3.55365 1.46716 3.51474 1.6948L0.482296 19.5486C0.42202 19.9007 0.715686 20.2195 1.10008 20.2195H5.59625L6.72543 13.5707L6.69039 13.7789C6.77084 13.3089 7.20382 12.9623 7.71655 12.9623H9.85312C14.0504 12.9623 17.337 11.3796 18.297 6.80145C18.3255 6.66604 18.3502 6.53426 18.3715 6.4055C18.2503 6.34593 18.2503 6.34593 18.3715 6.4055C18.6574 4.71336 18.3696 3.56153 17.3836 2.51871Z" fill="#27346A"/>
<path d="M8.44584 5.79593C8.56876 5.7416 8.7032 5.71344 8.83934 5.71352H14.549C15.2251 5.71352 15.8557 5.75437 16.432 5.84047C16.5932 5.86433 16.7537 5.89283 16.913 5.92592C17.1389 5.97218 17.3621 6.02881 17.582 6.09559C17.8653 6.18342 18.1291 6.28571 18.3716 6.4055C18.6574 4.71271 18.3696 3.56153 17.3836 2.51871C16.2979 1.37056 14.337 0.878326 11.8276 0.878326H4.54416C4.03136 0.878326 3.5951 1.2249 3.51474 1.6948L0.482296 19.5479C0.422021 19.9006 0.715687 20.219 1.09945 20.219H5.59625L7.93896 6.42777C7.96199 6.29221 8.02016 6.16388 8.10846 6.05382C8.19676 5.94375 8.31254 5.85525 8.44584 5.79593Z" fill="#27346A"/>
<path d="M18.2971 6.80146C17.337 11.379 14.0506 12.9623 9.85319 12.9623H7.716C7.20327 12.9623 6.77021 13.3089 6.69054 13.7789L5.28576 22.0459C5.23327 22.354 5.48995 22.6332 5.82574 22.6332H9.61591C9.83302 22.6331 10.043 22.5612 10.2081 22.4302C10.3731 22.2993 10.4824 22.118 10.5164 21.9189L10.5533 21.7396L11.2676 17.5369L11.3137 17.3046C11.3476 17.1055 11.4569 16.9242 11.6219 16.7933C11.787 16.6624 11.9969 16.5904 12.214 16.5903H12.7813C16.4528 16.5903 19.3277 15.2057 20.1679 11.201C20.5185 9.52739 20.3371 8.13012 19.4094 7.14868C19.1281 6.85142 18.7786 6.60591 18.3716 6.40552C18.3496 6.53492 18.3257 6.66606 18.2971 6.80146Z" fill="#2790C3"/>
<path d="M17.3669 6.03362C17.2172 5.99305 17.0661 5.95712 16.9138 5.92591C16.7544 5.89337 16.5939 5.86506 16.4328 5.84104C15.8559 5.75436 15.2257 5.71344 14.549 5.71344H8.84005C8.70381 5.71316 8.56927 5.74156 8.44655 5.79651C8.3131 5.85565 8.19718 5.94409 8.10885 6.05419C8.02051 6.16428 7.96241 6.29271 7.93959 6.42834L6.72615 13.5707L6.6911 13.7789C6.77092 13.3089 7.20391 12.9623 7.71671 12.9623H9.85391C14.0512 12.9623 17.3377 11.3796 18.2977 6.80144C18.3263 6.66604 18.3503 6.53483 18.3723 6.4055C18.1292 6.28636 17.866 6.18341 17.5827 6.09616C17.5112 6.07415 17.4392 6.0533 17.3669 6.03362" fill="#1F264F"/>
</g>
<defs>
<clipPath id="clip0_16_67">
<rect width="19.9359" height="21.8323" fill="white" transform="translate(0.471802 0.819336)"/>
</clipPath>
</defs>
</svg>
