<svg width="46" height="44" viewBox="0 0 46 44" fill="none" xmlns="http://www.w3.org/2000/svg">
<path d="M45 22C45 33.5566 35.1926 43 23 43C10.8074 43 1 33.5566 1 22C1 10.4434 10.8074 1 23 1C35.1926 1 45 10.4434 45 22Z" stroke="white" stroke-width="2"/>
<path d="M29.5964 20.0577C29.3274 20.3145 29.0022 20.4378 28.6211 20.4275C28.2399 20.4164 27.9148 20.2824 27.6457 20.0256L23.8453 16.398V30.7158C23.8453 31.0796 23.7161 31.3848 23.4578 31.6313C23.2004 31.877 22.8812 31.9999 22.5 31.9999C22.1188 31.9999 21.7991 31.877 21.5408 31.6313C21.2834 31.3848 21.1547 31.0796 21.1547 30.7158V16.398L17.3206 20.0577C17.0516 20.3145 16.7318 20.4429 16.3614 20.4429C15.9919 20.4429 15.6726 20.3145 15.4036 20.0577C15.1345 19.8008 15 19.4957 15 19.1421C15 18.7894 15.1345 18.4846 15.4036 18.2278L21.5583 12.353C21.6928 12.2246 21.8386 12.1334 21.9955 12.0795C22.1525 12.0264 22.3206 11.9999 22.5 11.9999C22.6794 11.9999 22.8475 12.0264 23.0045 12.0795C23.1614 12.1334 23.3072 12.2246 23.4417 12.353L29.63 18.2599C29.8767 18.4953 30 18.7894 30 19.1421C30 19.4957 29.8655 19.8008 29.5964 20.0577Z" fill="white"/>
</svg>
